<svg width="50" height="50" viewBox="0 0 50 50" fill="none" xmlns="http://www.w3.org/2000/svg">
<path d="M30.4683 23.4551C30.4604 22.1442 31.118 21.1547 32.4493 20.426C31.7044 19.4651 30.5792 18.9364 29.0935 18.8328C27.687 18.7328 26.1497 19.5723 25.5871 19.5723C24.9929 19.5723 23.6299 18.8686 22.5602 18.8686C20.3494 18.9007 18 20.4581 18 23.6266C18 24.5625 18.1902 25.5293 18.5705 26.5271C19.0777 27.8381 20.9081 31.0529 22.8177 30.9993C23.8162 30.9779 24.5214 30.3599 25.8209 30.3599C27.0808 30.3599 27.7345 30.9993 28.8478 30.9993C30.7733 30.9743 32.4294 28.0524 32.9128 26.7378C30.3296 25.6412 30.4683 23.523 30.4683 23.4551V23.4551ZM28.2258 17.5898C29.3074 16.4324 29.2084 15.3786 29.1767 15C28.2218 15.05 27.1165 15.5858 26.4865 16.2467C25.7932 16.9539 25.3851 17.8291 25.4723 18.815C26.5063 18.8864 27.4493 18.4078 28.2258 17.5898V17.5898Z" fill="white"/>
<rect x="1" y="1" width="48" height="48" rx="24" stroke="white" stroke-width="2"/>
</svg>
