<svg width="50" height="50" viewBox="0 0 50 50" fill="none" xmlns="http://www.w3.org/2000/svg">
<path d="M31.9277 22.7321C31.917 20.758 32.8099 19.268 34.6172 18.1707C33.606 16.7238 32.0783 15.9277 30.0612 15.7717C28.1517 15.6211 26.0646 16.8851 25.3008 16.8851C24.4939 16.8851 22.6436 15.8255 21.1912 15.8255C18.1897 15.8739 15 18.2191 15 22.9903C15 24.3996 15.2582 25.8555 15.7746 27.358C16.4631 29.3321 18.9482 34.1732 21.5409 34.0926C22.8964 34.0603 23.8538 33.1297 25.6182 33.1297C27.3287 33.1297 28.2162 34.0926 29.7277 34.0926C32.3419 34.0549 34.5903 29.6549 35.2466 27.6754C31.7395 26.0241 31.9277 22.8343 31.9277 22.7321V22.7321ZM28.8832 13.8998C30.3517 12.157 30.2172 10.5702 30.1742 10C28.8778 10.0753 27.3771 10.8822 26.5218 11.8773C25.5805 12.9423 25.0265 14.2602 25.1448 15.7448C26.5487 15.8524 27.8289 15.1316 28.8832 13.8998V13.8998Z" fill="white"/>
<rect x="1" y="1" width="48" height="48" rx="24" stroke="white" stroke-width="2"/>
</svg>
