<svg width="51" height="50" viewBox="0 0 51 50" fill="none" xmlns="http://www.w3.org/2000/svg">
<path d="M28.4995 16.0033L26.4246 16C24.0936 16 22.5872 17.5455 22.5872 19.9376V21.7531H20.5011C20.3208 21.7531 20.1748 21.8993 20.1748 22.0795V24.71C20.1748 24.8903 20.321 25.0363 20.5011 25.0363H22.5872V31.6738C22.5872 31.854 22.7332 32 22.9135 32H25.6353C25.8156 32 25.9616 31.8539 25.9616 31.6738V25.0363H28.4008C28.581 25.0363 28.727 24.8903 28.727 24.71L28.728 22.0795C28.728 21.993 28.6936 21.9101 28.6325 21.8488C28.5714 21.7876 28.4882 21.7531 28.4016 21.7531H25.9616V20.2141C25.9616 19.4744 26.1378 19.0989 27.1014 19.0989L28.4991 19.0984C28.6792 19.0984 28.8252 18.9522 28.8252 18.7721V16.3296C28.8252 16.1496 28.6794 16.0037 28.4995 16.0033Z" fill="white"/>
<rect x="1.5" y="1" width="48" height="48" rx="24" stroke="white" stroke-width="2"/>
</svg>
