<svg width="50" height="50" viewBox="0 0 50 50" fill="none" xmlns="http://www.w3.org/2000/svg">
<g clip-path="url(#clip0_204_43373)">
<path d="M27.9995 16.0033L25.9246 16C23.5936 16 22.0872 17.5455 22.0872 19.9376V21.7531H20.0011C19.8208 21.7531 19.6748 21.8993 19.6748 22.0795V24.71C19.6748 24.8903 19.821 25.0363 20.0011 25.0363H22.0872V31.6738C22.0872 31.854 22.2332 32 22.4135 32H25.1353C25.3156 32 25.4616 31.8539 25.4616 31.6738V25.0363H27.9008C28.081 25.0363 28.227 24.8903 28.227 24.71L28.228 22.0795C28.228 21.993 28.1936 21.9101 28.1325 21.8488C28.0714 21.7876 27.9882 21.7531 27.9016 21.7531H25.4616V20.2141C25.4616 19.4744 25.6378 19.0989 26.6014 19.0989L27.9991 19.0984C28.1792 19.0984 28.3252 18.9522 28.3252 18.7721V16.3296C28.3252 16.1496 28.1794 16.0037 27.9995 16.0033Z" fill="#3B5999"/>
</g>
<rect x="1" y="1" width="48" height="48" rx="24" stroke="#3B5999" stroke-width="2"/>
<defs>
<clipPath id="clip0_204_43373">
<rect width="10" height="16" fill="white" transform="translate(19 16)"/>
</clipPath>
</defs>
</svg>
