<svg width="50" height="50" viewBox="0 0 50 50" fill="none" xmlns="http://www.w3.org/2000/svg">
<path d="M21.7788 23.7097C24.7849 23.7097 26.583 23.7097 27.173 23.7097C27.3696 24.7492 27.3275 25.7606 27.0465 26.744C26.7656 27.6992 26.2739 28.4999 25.5716 29.1461C24.9254 29.7361 24.1387 30.1434 23.2116 30.3682C22.2002 30.5929 21.2169 30.5789 20.2616 30.326C19.5031 30.1294 18.8147 29.7782 18.1967 29.2725C17.5224 28.7387 17.0026 28.1066 16.6374 27.3761C16.0193 26.1961 15.8507 24.9459 16.1317 23.6254C16.216 23.1197 16.3845 22.6421 16.6374 22.1926C17.3117 20.7879 18.3933 19.8326 19.8824 19.3269C21.1747 18.8774 22.4671 18.8915 23.7594 19.3691C24.4337 19.6219 25.0518 20.0012 25.6137 20.5069C25.5575 20.5912 25.4592 20.7036 25.3187 20.844C25.1782 20.9564 25.0939 21.0407 25.0658 21.0969C24.9535 21.1812 24.7709 21.3497 24.518 21.6026C24.2932 21.8274 24.1247 22.01 24.0123 22.1505C23.6471 21.7852 23.2256 21.5324 22.748 21.3919C22.1861 21.2233 21.6242 21.2093 21.0623 21.3497C20.3881 21.4902 19.8121 21.7993 19.3345 22.2769C18.9693 22.6702 18.6883 23.1338 18.4917 23.6676C18.2388 24.398 18.2388 25.1425 18.4917 25.9011C18.7445 26.6316 19.194 27.2216 19.8402 27.6711C20.2335 27.952 20.655 28.1346 21.1045 28.2189C21.5259 28.3032 21.9895 28.3032 22.4952 28.2189C22.9728 28.1346 23.3942 27.9661 23.7594 27.7132C24.4056 27.2918 24.7849 26.7018 24.8973 25.9433C23.8578 25.9433 22.8183 25.9433 21.7788 25.9433C21.7788 25.7747 21.7788 25.4095 21.7788 24.8476C21.7788 24.2576 21.7788 23.8783 21.7788 23.7097ZM34 23.8361V25.269H32.0193V27.2075H30.5865V25.269H28.6058V23.8361H30.5865V21.8555H32.0193V23.8361H34Z" fill="#DD4B39"/>
<rect x="1" y="1" width="48" height="48" rx="24" stroke="#DD4B39" stroke-width="2"/>
</svg>
