<svg width="50" height="50" viewBox="0 0 50 50" fill="none" xmlns="http://www.w3.org/2000/svg">
<circle cx="25" cy="25" r="24" stroke="white" stroke-width="2"/>
<path d="M28.25 17H20.75C18.6789 17 17 18.6789 17 20.75V28.25C17 30.3211 18.6789 32 20.75 32H28.25C30.3211 32 32 30.3211 32 28.25V20.75C32 18.6789 30.3211 17 28.25 17Z" stroke="white" stroke-width="1.75366" stroke-linecap="round" stroke-linejoin="round"/>
<path d="M27.5 24.0275C27.5925 24.6517 27.4859 25.2891 27.1953 25.8492C26.9047 26.4093 26.4448 26.8635 25.8812 27.1472C25.3175 27.4309 24.6788 27.5297 24.0558 27.4294C23.4328 27.3292 22.8573 27.035 22.4111 26.5889C21.9649 26.1427 21.6708 25.5671 21.5705 24.9441C21.4703 24.3211 21.569 23.6824 21.8527 23.1188C22.1364 22.5551 22.5906 22.0953 23.1507 21.8047C23.7108 21.514 24.3483 21.4074 24.9725 21.5C25.6092 21.5944 26.1986 21.8911 26.6537 22.3462C27.1089 22.8013 27.4056 23.3908 27.5 24.0275Z" stroke="white" stroke-width="1.75366" stroke-linecap="round" stroke-linejoin="round"/>
<path d="M28.625 20.375H28.633" stroke="white" stroke-width="1.75366" stroke-linecap="round" stroke-linejoin="round"/>
</svg>
